<mxfile host="app.diagrams.net" modified="2023-09-04T12:51:44.448Z" agent="Mozilla/5.0 (Windows NT 10.0; Win64; x64) AppleWebKit/537.36 (KHTML, like Gecko) Chrome/116.0.0.0 Safari/537.36" version="21.7.2" etag="bNX5kHWsSFXKo4Q9pcMA" type="github">
  <diagram name="第 1 页" id="WF5rENs4LT83nXt2_iJB">
    <mxGraphModel>
      <root>
        <mxCell id="0" />
        <mxCell id="1" parent="0" />
      </root>
    </mxGraphModel>
  </diagram>
</mxfile>
